# xmcd CD database file
#
# Track frame offsets:
#	150
#	23562
#	47625
#
# Disc length: 903 seconds
#
# Revision: 0
# Processed by: cddbd v1.5PL3 Copyright (c) Steve Scherf et al.
# Submitted via: CDex 1.51
#
DISCID=18038503
DTITLE=鈴里真帆 - RAIN
DYEAR=1999
DGENRE=JPop
TTITLE0=RAIN
TTITLE1=Blowin' in the wind 〜風に吹かれて〜
TTITLE2=ずっと
EXTD=YEAR: 1999
EXTT0=
EXTT1=
EXTT2=
PLAYORDER=
